<?xml version="1.0" standalone="no"?>
<!DOCTYPE svg PUBLIC "-//W3C//DTD SVG 20010904//EN"
 "http://www.w3.org/TR/2001/REC-SVG-20010904/DTD/svg10.dtd">
<svg version="1.0" xmlns="http://www.w3.org/2000/svg"
 width="1024.000000pt" height="640.000000pt" viewBox="0 0 1024.000000 640.000000"
 preserveAspectRatio="xMidYMid meet">

<g transform="translate(0.000000,640.000000) scale(0.100000,-0.100000)"
fill="#000000" stroke="none">
<path d="M0 3200 l0 -3200 5120 0 5120 0 0 3200 0 3200 -5120 0 -5120 0 0
-3200z m5306 2750 c49 -29 104 -61 122 -72 18 -10 66 -37 105 -59 40 -23 97
-55 127 -72 30 -16 60 -33 65 -37 6 -4 27 -17 48 -29 68 -38 101 -58 177 -104
41 -26 104 -63 140 -83 36 -21 90 -52 120 -69 30 -18 114 -66 185 -108 72 -41
171 -98 220 -127 50 -29 110 -64 135 -78 25 -13 70 -39 100 -57 658 -388 680
-402 714 -469 14 -28 28 -64 31 -81 4 -16 -1 -165 -10 -330 -8 -165 -20 -383
-25 -485 -5 -102 -12 -212 -15 -245 -3 -33 -12 -204 -21 -380 -23 -477 -41
-730 -53 -753 -15 -28 -91 -72 -124 -72 -24 0 -26 -2 -17 -25 14 -37 -3 -142
-26 -165 -10 -10 -84 -56 -164 -103 -80 -46 -287 -166 -460 -267 -173 -101
-328 -191 -345 -200 -41 -24 -126 -73 -285 -165 -74 -43 -193 -111 -265 -153
-71 -41 -134 -78 -140 -82 -23 -19 -205 -118 -235 -129 -43 -15 -156 -13 -200
2 -20 7 -83 40 -140 73 -121 70 -449 259 -630 364 -69 40 -231 133 -360 208
-129 74 -248 143 -265 153 -16 10 -48 28 -70 40 -22 12 -116 66 -208 120 -93
55 -171 99 -173 99 -2 0 -60 34 -129 75 -69 41 -127 75 -130 75 -16 0 -187
115 -196 132 -6 11 -12 49 -12 83 -2 75 8 90 92 137 31 17 115 66 186 108 72
42 180 105 240 140 61 35 146 84 190 110 44 26 184 107 310 180 127 73 338
196 470 273 396 231 408 237 453 249 23 6 75 8 113 6 l70 -5 -25 26 c-14 14
-37 53 -53 86 -34 74 -34 28 11 860 64 1162 76 1365 85 1388 18 47 81 79 142
73 21 -2 74 -26 125 -56z m4199 -172 c27 -32 35 -104 13 -126 -9 -9 -9 -12 3
-12 25 0 80 -60 77 -84 -2 -17 -10 -21 -40 -21 -20 -1 -34 3 -31 8 3 5 -4 15
-16 23 -12 8 -21 22 -21 30 0 11 -9 13 -40 8 -80 -13 -137 41 -127 119 7 48
32 77 78 86 50 10 76 2 104 -31z m-8639 -12 c33 -28 38 -84 11 -114 -16 -18
-16 -21 3 -63 28 -62 26 -69 -18 -69 -35 0 -39 3 -51 38 -16 45 -29 62 -47 62
-10 0 -14 -14 -14 -50 l0 -50 -40 0 -40 0 0 135 0 135 84 0 c75 0 88 -3 112
-24z m272 -8 l-3 -32 -57 3 c-53 2 -58 1 -58 -18 0 -19 6 -21 55 -21 l55 0 0
-35 0 -35 -55 0 c-48 0 -55 -2 -55 -20 0 -18 7 -20 60 -20 l60 0 0 -30 0 -30
-100 0 -100 0 0 128 c0 71 3 132 7 135 3 4 49 7 100 7 l94 0 -3 -32z m243 6
c13 -13 21 -35 22 -58 1 -51 -27 -76 -94 -84 -45 -6 -54 -11 -55 -27 -4 -79
-2 -75 -38 -75 l-35 0 -3 103 c-2 56 -2 117 0 135 l3 34 89 -4 c75 -2 93 -6
111 -24z m223 -59 c22 -49 43 -82 49 -78 6 3 7 1 3 -5 -4 -6 2 -29 14 -51 11
-22 20 -43 20 -46 0 -3 -18 -5 -40 -5 -34 0 -41 4 -46 25 -6 23 -11 25 -65 25
-54 0 -61 -2 -71 -25 -9 -20 -18 -25 -50 -25 -22 0 -38 4 -36 9 2 5 30 65 62
135 58 122 61 126 91 126 29 0 33 -5 69 -85z m179 73 c-2 -5 -3 -64 -3 -133
l0 -125 -34 0 c-19 0 -36 6 -39 13 -2 6 -2 67 1 135 l5 123 36 -3 c20 -2 35
-6 34 -10z m251 -13 c31 -29 34 -72 7 -107 -20 -25 -20 -25 4 -74 14 -27 25
-52 25 -56 0 -5 -18 -8 -40 -8 -38 0 -40 2 -61 50 -15 35 -27 50 -40 50 -16 0
-19 -8 -19 -50 l0 -50 -40 0 -40 0 0 135 0 135 89 0 c80 0 91 -2 115 -25z
m-1181 -426 c40 -11 47 -31 24 -64 -10 -12 -16 -14 -21 -7 -4 7 -25 12 -46 12
-60 0 -87 -52 -59 -114 14 -29 48 -40 84 -26 37 14 40 13 53 -15 10 -22 9 -26
-18 -40 -37 -19 -103 -19 -139 -1 -77 40 -93 163 -30 226 39 39 86 48 152 29z
m301 -28 c25 -25 30 -40 34 -89 7 -101 -39 -152 -136 -152 -45 0 -100 33 -119
70 -19 38 -16 110 7 148 42 69 156 81 214 23z m356 -107 l0 -134 -35 0 c-35 0
-35 0 -36 48 l-1 47 -21 -47 c-16 -38 -26 -48 -44 -48 -19 0 -29 11 -49 53
-14 28 -23 41 -20 28 3 -13 2 -37 -1 -53 -5 -26 -10 -29 -37 -26 l-31 3 -1
133 -2 133 36 -3 c34 -3 37 -6 70 -86 l35 -83 24 58 c50 121 49 120 83 115
l30 -4 0 -134z m261 107 c25 -31 24 -74 -4 -106 -18 -21 -32 -27 -72 -29 l-50
-2 -3 -52 -3 -52 -40 0 -39 0 0 133 c0 74 2 136 4 138 2 2 46 2 96 -1 81 -4
94 -8 111 -29z m127 -60 c1 -52 8 -101 14 -108 14 -18 38 -16 60 4 15 13 18
32 18 107 l0 91 37 0 38 0 2 -55 c8 -154 -18 -209 -105 -218 -109 -10 -142 29
-142 170 0 52 2 97 4 99 2 2 19 4 38 4 l33 0 3 -94z m432 58 c0 -27 -2 -29
-40 -29 l-40 0 0 -105 0 -105 -40 0 -40 0 0 105 0 105 -40 0 c-38 0 -40 2 -40
29 0 35 13 38 153 33 l87 -3 0 -30z m196 32 c28 -1 30 -3 26 -31 -4 -29 -5
-30 -63 -30 -52 0 -59 -2 -59 -20 0 -18 7 -20 60 -20 l60 0 0 -30 0 -30 -61 0
c-57 0 -60 -1 -57 -22 3 -21 8 -23 60 -23 55 1 56 0 61 -28 2 -16 -1 -31 -8
-33 -6 -3 -51 -4 -99 -2 l-87 3 -2 133 c-1 72 1 133 6 135 6 2 39 1 163 -2z
m253 -10 c45 -25 51 -110 9 -132 -13 -7 -17 -14 -10 -18 9 -5 52 -94 52 -107
0 -2 -19 -4 -43 -4 -42 0 -43 1 -60 50 -13 37 -23 50 -37 50 -17 0 -20 -7 -20
-50 l0 -50 -40 0 -40 0 0 133 c0 74 2 136 4 138 9 9 165 0 185 -10z m-1659
-716 l0 -35 -227 2 c-211 3 -228 4 -231 21 -9 46 -6 47 233 47 l225 0 0 -35z
m3285 -670 c0 -35 -4 -42 -38 -61 l-39 -21 35 -22 c19 -11 40 -21 47 -21 7 0
43 17 81 37 38 20 72 33 76 29 4 -4 7 -40 6 -79 -2 -82 -17 -109 -79 -144 -44
-25 -95 -37 -233 -53 -75 -9 -102 -16 -135 -39 -22 -15 -68 -44 -101 -63 -33
-19 -198 -119 -368 -221 -326 -197 -354 -209 -434 -188 -56 15 -76 41 -79 103
-2 46 1 54 29 81 18 17 212 128 432 248 220 120 410 230 422 244 12 14 25 42
29 63 18 99 116 153 269 149 l80 -2 0 -40z m-2237 -133 c3 -43 6 -52 22 -52
25 0 74 -42 101 -88 45 -75 44 -75 109 -42 57 29 70 44 70 81 0 23 18 25 26 4
4 -8 14 -15 24 -15 20 0 30 -19 30 -55 0 -26 -12 -38 -59 -54 -19 -6 -48 -21
-65 -34 -72 -53 -114 -59 -150 -20 -14 15 -28 25 -30 22 -3 -3 -8 -30 -12 -61
l-6 -56 50 -16 c32 -11 52 -24 55 -36 3 -11 2 -20 -2 -20 -17 0 -327 103 -335
111 -22 20 -60 8 -92 -27 l-33 -36 34 -34 c37 -37 42 -53 23 -72 -17 -17 -35
-15 -83 9 -27 13 -51 36 -64 59 -20 36 -51 60 -51 40 0 -17 -19 -11 -37 10
-24 27 -45 120 -29 126 6 2 38 -5 70 -16 61 -21 101 -26 92 -12 -2 4 -46 21
-96 37 -85 27 -113 45 -96 62 4 4 54 -9 113 -28 75 -24 108 -30 110 -22 9 27
74 102 94 108 12 4 18 12 15 21 -4 10 3 14 27 14 37 0 59 26 50 59 -3 12 -1
21 6 21 6 0 12 -6 12 -12 1 -7 5 5 8 27 5 31 10 39 24 37 9 -2 25 2 35 7 28
17 37 7 40 -47z m5658 -161 c9 -9 334 -201 340 -201 2 0 48 -27 103 -61 83
-50 104 -58 120 -50 11 6 30 11 43 11 23 -1 23 -1 -3 -15 -31 -17 -62 -76 -52
-100 4 -13 2 -16 -8 -13 -8 2 -16 20 -19 38 -5 31 -15 39 -125 103 -66 39
-167 98 -225 132 -58 34 -126 74 -152 89 -37 20 -48 33 -48 51 0 26 9 32 26
16z m1772 -108 c2 -24 -2 -34 -17 -43 -31 -16 -61 3 -61 39 0 36 8 43 45 39
26 -3 30 -8 33 -35z m-7568 -134 c0 -11 -4 -17 -10 -14 -5 3 -10 15 -10 26 0
11 5 17 10 14 6 -3 10 -15 10 -26z m17 -64 c8 -22 -6 -33 -17 -15 -13 20 -12
30 0 30 6 0 13 -7 17 -15z m-37 -19 c0 -19 10 -28 48 -44 26 -11 62 -23 80
-27 42 -9 41 -24 -7 -67 -44 -40 -156 -259 -192 -379 -13 -42 -34 -85 -52
-106 l-31 -35 34 4 c31 3 34 1 51 -47 24 -69 24 -102 -1 -110 -24 -8 -64 15
-79 44 -6 10 -15 50 -21 89 -14 90 -1 189 44 337 45 147 74 273 65 282 -8 9
37 83 51 83 6 0 10 -11 10 -24z m7588 -13 c2 -24 -2 -34 -17 -43 -27 -14 -61
3 -61 30 0 38 11 51 44 48 27 -3 31 -7 34 -35z m-7271 12 c8 -22 -6 -33 -17
-15 -13 20 -12 30 0 30 6 0 13 -7 17 -15z m-207 -25 c8 -5 12 -12 9 -15 -8 -8
-39 5 -39 16 0 11 11 11 30 -1z m5948 -22 c35 -17 52 -34 65 -63 40 -90 54
-109 92 -130 22 -12 148 -82 280 -155 132 -73 269 -149 305 -168 118 -64 120
-66 120 -127 0 -48 -3 -56 -31 -75 -25 -19 -40 -22 -89 -18 -63 4 -35 -11
-570 313 l-195 118 -110 14 c-174 22 -235 66 -235 168 0 70 10 74 82 36 l63
-34 33 20 33 20 -34 21 c-27 16 -34 26 -33 48 0 16 6 33 11 37 21 17 165 0
213 -25z m449 12 c10 -11 22 -20 27 -20 5 0 62 -31 127 -70 64 -38 122 -70
128 -70 22 0 61 -24 66 -41 8 -23 -21 -85 -47 -104 -24 -16 -43 -11 -78 21
-25 22 -221 140 -291 175 -80 40 -67 128 19 129 20 0 39 -7 49 -20z m-6241
-45 c19 -14 19 -14 -2 -15 -12 0 -24 7 -28 15 -7 19 5 19 30 0z m72 -9 c3 -12
-1 -17 -10 -14 -7 3 -15 13 -16 22 -3 12 1 17 10 14 7 -3 15 -13 16 -22z
m-113 -16 c3 -5 6 -99 6 -207 0 -293 6 -358 37 -395 14 -17 41 -37 59 -44 22
-10 33 -21 33 -35 0 -19 -4 -20 -47 -16 -45 5 -91 12 -139 22 -14 3 -24 15
-27 32 -7 39 1 54 28 47 13 -3 32 -1 42 5 15 9 14 10 -14 11 l-31 0 -7 83 c-3
45 -7 152 -8 237 -2 130 1 164 17 213 18 53 37 70 51 47z m7349 -106 c24 -9
21 -61 -4 -74 -27 -15 -60 4 -60 33 0 38 27 55 64 41z m-1015 -893 c43 -27
195 -114 301 -173 213 -118 370 -214 396 -242 48 -52 72 -98 70 -133 -2 -18
-3 -62 -4 -97 l-2 -64 -92 -53 c-82 -45 -213 -121 -387 -223 -29 -17 -63 -41
-75 -54 -43 -47 -152 -91 -139 -56 5 14 97 73 166 108 29 14 35 22 27 30 -9 8
-16 5 -27 -11 -12 -18 -19 -21 -34 -12 -10 5 -19 16 -19 24 0 8 -2 15 -5 15
-2 0 -71 -39 -152 -86 -81 -47 -222 -129 -313 -182 -91 -52 -214 -124 -274
-159 -111 -65 -136 -71 -168 -40 -7 7 -21 16 -31 20 -11 4 -15 12 -11 19 5 9
3 9 -7 0 -12 -11 -8 -18 24 -44 27 -22 37 -38 37 -58 0 -37 -22 -55 -49 -41
-28 16 -33 14 -21 -8 15 -28 45 -35 74 -16 14 9 35 15 48 13 21 -3 20 -5 -14
-25 -30 -18 -38 -28 -38 -51 0 -45 -24 -60 -61 -38 -26 16 -31 16 -51 2 -13
-9 -43 -16 -69 -16 -40 0 -65 11 -170 72 -126 73 -186 108 -481 278 -161 92
-167 97 -245 197 -10 13 -19 11 -72 -22 -34 -20 -65 -34 -71 -30 -6 4 -10 54
-10 118 l0 113 68 35 c53 29 79 36 128 38 34 1 74 -3 88 -9 15 -5 25 -6 22 -2
-2 4 49 39 115 77 66 39 170 100 232 136 62 36 173 100 247 144 74 43 182 106
240 140 58 34 197 115 310 180 113 64 235 135 272 157 112 66 158 72 227 29z
m-5894 -613 c72 -41 185 -107 253 -147 138 -80 292 -170 532 -309 270 -156
259 -146 252 -222 -4 -42 -16 -52 -157 -133 -33 -19 -135 -77 -227 -131 -163
-93 -170 -96 -231 -96 -66 0 -70 2 -417 205 -30 17 -116 67 -190 110 -74 42
-171 99 -215 125 -44 26 -129 76 -190 110 -164 94 -205 121 -215 141 -16 30
-12 94 8 111 18 17 496 292 535 308 12 6 47 8 77 7 48 -3 72 -13 185 -79z
m753 -62 c70 -41 222 -129 337 -197 328 -192 311 -183 337 -165 23 16 78 22
78 9 0 -5 -15 -15 -32 -23 -41 -21 -70 -74 -66 -122 4 -44 -5 -48 -28 -13 -10
15 -14 35 -10 52 6 30 -6 40 -149 118 -27 16 -93 53 -145 84 -52 31 -177 104
-277 161 -177 102 -182 106 -183 138 0 17 2 32 5 32 3 0 63 -33 133 -74z m838
-423 c16 -15 34 -28 41 -29 7 -1 61 -31 120 -67 185 -110 234 -137 249 -137
29 0 74 -31 80 -55 9 -37 -13 -91 -52 -125 -44 -39 -65 -38 -107 4 -19 19
-110 78 -203 131 -93 54 -172 103 -176 110 -5 7 -16 11 -26 8 -27 -7 -68 38
-76 82 -12 61 26 98 105 104 9 0 29 -11 45 -26z m4391 -46 c-2 -6 -37 -31 -78
-55 -157 -93 -185 -110 -229 -134 -25 -14 -73 -42 -108 -62 -59 -35 -99 -41
-90 -15 3 10 99 68 372 224 100 57 143 71 133 42z m-533 -283 c29 -11 17 -29
-40 -62 -36 -21 -64 -30 -76 -26 -10 3 -18 10 -16 15 2 7 47 37 115 78 1 1 8
-2 17 -5z m-7156 -26 c-3 -23 -5 -23 -163 -23 -158 0 -160 0 -163 23 l-3 22
166 0 166 0 -3 -22z m8547 -33 c0 -40 0 -40 43 -43 33 -3 42 -7 42 -22 0 -15
-9 -19 -42 -22 -43 -3 -43 -3 -46 -45 -3 -35 -7 -43 -23 -43 -16 0 -19 7 -19
45 l0 45 -45 0 c-38 0 -45 3 -45 20 0 17 7 20 45 20 l45 0 0 46 c0 41 2 45 23
42 19 -3 22 -9 22 -43z m-8547 -62 l3 -23 -165 0 c-154 0 -166 1 -166 18 0 10
3 22 7 26 4 3 77 5 162 4 153 -3 156 -3 159 -25z m-3 -93 l0 -25 -130 -3
c-155 -4 -195 2 -195 27 0 10 3 21 7 25 4 3 77 5 162 4 l156 -3 0 -25z"/>
<path d="M6370 5096 c0 -2 7 -7 16 -10 8 -3 12 -2 9 4 -6 10 -25 14 -25 6z"/>
<path d="M5171 5024 c0 -11 3 -14 6 -6 3 7 2 16 -1 19 -3 4 -6 -2 -5 -13z"/>
<path d="M6510 5010 c8 -5 20 -10 25 -10 6 0 3 5 -5 10 -8 5 -19 10 -25 10 -5
0 -3 -5 5 -10z"/>
<path d="M5161 4864 c0 -11 3 -14 6 -6 3 7 2 16 -1 19 -3 4 -6 -2 -5 -13z"/>
<path d="M6859 4852 c-11 -14 -11 -15 1 -5 9 9 19 9 32 2 11 -6 22 -9 24 -6 2
2 -7 9 -20 15 -20 9 -27 8 -37 -6z"/>
<path d="M6795 4850 c3 -5 8 -10 11 -10 2 0 4 5 4 10 0 6 -5 10 -11 10 -5 0
-7 -4 -4 -10z"/>
<path d="M6852 4815 c20 -14 40 -25 45 -25 4 0 -9 11 -29 25 -20 14 -40 25
-45 25 -4 0 9 -11 29 -25z"/>
<path d="M6920 4780 c35 -24 54 -31 30 -11 -14 11 -29 21 -35 21 -5 0 -3 -5 5
-10z"/>
<path d="M6976 4776 c10 -8 21 -12 24 -10 5 6 -21 24 -34 24 -6 0 -1 -6 10
-14z"/>
<path d="M6985 4740 c3 -5 8 -10 11 -10 2 0 4 5 4 10 0 6 -5 10 -11 10 -5 0
-7 -4 -4 -10z"/>
<path d="M5141 4494 c0 -11 3 -14 6 -6 3 7 2 16 -1 19 -3 4 -6 -2 -5 -13z"/>
<path d="M5132 4345 c0 -16 2 -22 5 -12 2 9 2 23 0 30 -3 6 -5 -1 -5 -18z"/>
<path d="M7433 4210 c-6 -16 -10 -47 -8 -67 2 -30 1 -32 -3 -8 -5 27 -7 25
-13 -20 -6 -47 -6 -46 -4 15 1 36 0 57 -2 47 -3 -9 -8 -15 -11 -13 -4 2 -8 -6
-9 -17 0 -12 -4 -51 -8 -87 -5 -51 -4 -62 5 -50 10 12 11 12 5 -5 -4 -11 -11
-31 -15 -45 -5 -14 -13 -119 -19 -235 -7 -115 -18 -313 -26 -440 -13 -204 -42
-677 -48 -777 -2 -37 -18 -50 -33 -27 -3 6 -15 9 -25 6 -10 -3 -17 0 -16 7 1
6 -8 10 -23 8 -18 -1 -21 1 -11 7 10 6 -6 20 -60 50 -41 22 -80 39 -87 36 -7
-3 -11 -1 -8 4 10 15 -188 126 -206 115 -6 -4 -8 -3 -4 4 4 6 -28 31 -78 61
-46 28 -86 51 -89 51 -3 0 -47 25 -98 55 -61 35 -95 50 -98 42 -2 -6 -11 -18
-19 -26 -13 -13 -13 -16 -1 -23 188 -112 221 -129 242 -123 15 4 18 3 9 -3
-11 -7 -7 -14 16 -31 17 -11 33 -21 36 -21 4 0 24 -11 47 -25 22 -14 45 -23
51 -19 6 4 8 3 4 -4 -4 -6 30 -29 84 -58 49 -26 90 -52 90 -57 0 -5 9 -7 21
-4 12 3 18 3 15 0 -7 -7 13 -22 75 -56 24 -13 85 -47 134 -76 50 -28 93 -51
96 -51 8 0 13 82 59 970 17 332 21 401 30 530 14 182 24 390 19 390 -3 0 -10
-13 -16 -30z m-6 -197 c-3 -10 -5 -2 -5 17 0 19 2 27 5 18 2 -10 2 -26 0 -35z
m-90 -755 c-3 -7 -5 -2 -5 12 0 14 2 19 5 13 2 -7 2 -19 0 -25z m-572 -526
c-3 -3 -11 0 -18 7 -9 10 -8 11 6 5 10 -3 15 -9 12 -12z m104 -58 c14 -12 -19
-1 -35 12 -18 14 -18 14 6 3 14 -6 27 -13 29 -15z m151 -114 c0 -5 -2 -10 -4
-10 -3 0 -8 5 -11 10 -3 6 -1 10 4 10 6 0 11 -4 11 -10z"/>
<path d="M5036 3743 c-6 -14 -5 -15 5 -6 7 7 10 15 7 18 -3 3 -9 -2 -12 -12z"/>
<path d="M5091 3744 c0 -11 3 -14 6 -6 3 7 2 16 -1 19 -3 4 -6 -2 -5 -13z"/>
<path d="M5091 3704 c0 -11 3 -14 6 -6 3 7 2 16 -1 19 -3 4 -6 -2 -5 -13z"/>
<path d="M5185 3630 c3 -5 8 -10 11 -10 2 0 4 5 4 10 0 6 -5 10 -11 10 -5 0
-7 -4 -4 -10z"/>
<path d="M5145 3620 c3 -5 8 -10 11 -10 2 0 4 5 4 10 0 6 -5 10 -11 10 -5 0
-7 -4 -4 -10z"/>
<path d="M5282 3604 c10 -10 20 -16 22 -13 3 3 -5 11 -17 18 -21 13 -21 12 -5
-5z"/>
<path d="M5338 3568 c24 -12 30 -28 10 -28 -10 0 -9 -3 1 -9 9 -6 10 -10 2
-16 -7 -4 -19 -1 -28 7 -12 9 -15 9 -9 1 4 -7 16 -18 28 -24 13 -7 18 -7 14
-1 -3 6 -2 13 4 17 6 4 7 11 4 17 -5 7 2 9 22 4 26 -6 25 -4 -11 18 -22 14
-44 25 -50 25 -5 0 0 -5 13 -11z"/>
<path d="M5290 3550 c-8 -5 -10 -10 -5 -10 6 0 17 5 25 10 8 5 11 10 5 10 -5
0 -17 -5 -25 -10z"/>
<path d="M4805 3506 c-27 -13 -97 -52 -155 -86 -58 -34 -118 -69 -134 -78 -15
-10 -53 -32 -85 -50 -54 -33 -73 -44 -208 -119 -63 -35 -78 -47 -45 -37 14 5
14 4 2 -4 -8 -6 -18 -8 -23 -5 -11 6 -117 -58 -111 -68 2 -4 -4 -7 -13 -7 -10
0 -83 -37 -163 -84 -80 -47 -188 -110 -240 -140 -52 -30 -129 -75 -170 -100
-41 -24 -84 -47 -95 -52 -15 -5 -16 -9 -6 -15 10 -6 9 -10 -4 -14 -9 -4 -13
-3 -10 3 11 17 -5 11 -63 -24 -32 -18 -117 -69 -191 -113 -74 -43 -139 -87
-145 -97 -19 -31 -9 -37 839 -526 374 -216 644 -372 925 -535 540 -313 544
-315 648 -295 44 8 118 46 351 182 163 95 364 211 446 258 83 48 218 127 300
175 83 48 159 93 170 99 149 82 614 357 638 378 27 22 30 30 21 45 -10 17
-373 236 -579 349 -27 15 -74 42 -103 61 -29 18 -54 33 -57 33 -2 0 -42 22
-87 49 -46 26 -103 60 -128 73 -25 14 -100 58 -168 97 -67 39 -124 71 -125 71
-1 0 -3 -18 -5 -41 -1 -23 -14 -68 -27 -102 -26 -63 -26 -127 -1 -127 8 0 11
-11 8 -30 -2 -16 -1 -46 2 -65 6 -32 8 -34 23 -20 20 21 37 14 41 -16 5 -33
29 -49 76 -49 24 0 51 -8 65 -19 l24 -19 -21 -6 c-12 -4 -37 -2 -54 4 -44 16
-97 -2 -78 -25 8 -9 8 -15 2 -15 -6 0 -20 12 -33 28 l-22 27 6 -54 c10 -90
-24 -107 -86 -43 -24 24 -37 47 -37 64 0 39 16 43 29 8 5 -17 15 -30 21 -30
17 0 3 81 -32 183 -17 49 -28 98 -25 110 3 12 14 58 26 102 34 130 25 153 -14
35 -19 -58 -41 -117 -50 -133 -14 -23 -14 -34 -5 -62 6 -19 16 -35 21 -35 5 0
7 -22 3 -52 -4 -35 1 -85 14 -148 24 -115 19 -135 -36 -127 -109 17 -142 32
-142 68 0 21 28 39 59 39 16 0 21 6 21 24 0 14 -4 27 -9 31 -6 3 -9 13 -9 23
1 22 -40 193 -50 208 -4 5 -24 20 -44 33 -21 12 -42 30 -47 39 -8 14 -12 14
-25 3 -14 -12 -16 -12 -11 1 5 11 -2 15 -29 14 -40 -1 -62 -16 -24 -16 14 0
31 -7 38 -15 7 -9 19 -14 26 -11 20 8 27 -27 8 -41 -21 -16 -34 -17 -34 -3 0
6 -4 10 -10 10 -5 0 -10 -11 -10 -24 0 -19 15 -32 75 -67 72 -42 91 -68 64
-85 -6 -3 3 -14 23 -26 18 -11 35 -22 37 -24 3 -2 -13 -20 -33 -39 -33 -30
-38 -39 -32 -65 5 -27 1 -33 -34 -56 -22 -15 -40 -31 -40 -36 0 -19 29 -18 66
1 37 19 41 20 89 4 101 -33 107 -35 96 -46 -8 -8 -23 -4 -52 11 -22 12 -45 22
-50 22 -5 0 -9 -25 -9 -55 0 -30 -4 -55 -8 -55 -5 0 -29 -13 -53 -30 -24 -16
-47 -30 -51 -30 -4 0 -10 22 -14 49 -6 45 -9 50 -59 79 -56 32 -94 32 -141 3
-15 -10 -16 -11 -1 -7 9 3 24 9 32 12 9 4 15 1 15 -7 0 -8 18 -24 40 -37 l40
-23 0 -63 c0 -52 -4 -66 -19 -77 -11 -8 -21 -21 -22 -29 -3 -31 1 -50 12 -50
6 0 9 6 6 14 -7 18 14 38 30 28 6 -4 11 -19 11 -34 -1 -34 13 -52 52 -68 16
-7 28 -16 25 -20 -3 -4 3 -7 11 -6 14 1 17 -12 20 -66 4 -67 4 -68 -21 -68
-38 0 -105 41 -106 65 0 17 -1 18 -7 3 -5 -12 -12 -14 -21 -9 -7 5 -10 14 -7
20 4 6 2 11 -4 11 -7 0 -9 9 -5 23 5 17 4 19 -4 7 -8 -11 -11 -12 -11 -2 0 7
-5 10 -11 6 -6 -3 -15 -1 -19 6 -5 9 -9 9 -14 1 -4 -6 4 -16 21 -22 15 -6 23
-13 16 -16 -6 -2 -37 10 -68 28 -46 26 -54 34 -41 41 9 5 20 7 25 3 5 -3 9 16
8 42 -1 43 2 49 26 61 15 7 27 17 27 21 0 5 9 11 20 14 17 4 20 14 20 61 0 51
-2 57 -30 71 -34 17 -40 18 -40 6 0 -5 14 -14 30 -21 39 -16 38 -43 -1 -71
l-32 -22 -47 26 c-27 15 -60 27 -75 27 -15 0 -43 10 -62 21 l-35 22 13 -21
c12 -19 11 -23 -6 -36 -25 -19 -34 -20 -41 -1 -4 8 -17 15 -30 15 -13 0 -33 9
-44 20 -11 11 -32 22 -47 26 l-28 6 30 -22 c81 -58 120 -70 220 -70 71 0 102
-4 120 -16 l25 -16 -42 -23 c-39 -21 -61 -45 -41 -45 4 0 15 -5 23 -10 13 -8
12 -11 -4 -23 -17 -12 -38 -3 -210 93 -241 135 -288 164 -279 175 5 4 3 5 -4
1 -6 -3 -31 5 -55 19 -24 14 -58 33 -75 42 -18 9 -33 20 -33 25 0 4 26 8 59 8
54 0 59 2 63 24 5 25 2 27 -106 89 l-31 17 48 0 c35 0 70 -11 135 -42 48 -23
89 -45 92 -49 7 -8 47 -29 56 -29 5 0 -11 14 -34 31 -23 17 -42 33 -42 35 0 3
3 3 8 1 4 -3 36 -23 72 -44 36 -22 86 -49 110 -60 25 -11 55 -30 66 -41 12
-12 25 -18 28 -15 3 4 6 1 6 -6 0 -7 4 -10 9 -6 5 3 12 1 16 -5 3 -5 23 -11
43 -11 36 -1 36 -1 7 -8 -25 -5 -27 -8 -12 -14 26 -10 34 -9 49 6 7 7 24 21
38 31 l25 18 -25 -7 c-14 -3 2 9 35 28 44 25 63 32 73 24 10 -8 12 -7 10 4 -2
9 26 29 75 54 79 40 95 56 103 100 3 17 -1 25 -16 30 -11 3 -27 13 -35 22 -12
12 -19 12 -30 3 -11 -10 -40 3 -149 64 -74 42 -141 76 -150 76 -14 0 -46 -17
-231 -120 l-60 -34 45 41 45 40 -37 5 c-20 2 -34 0 -32 -4 3 -4 -5 -8 -17 -8
-18 0 -19 2 -9 15 8 9 9 15 2 15 -6 0 -14 -5 -18 -12 -5 -8 -10 -7 -18 4 -6 9
-20 17 -31 19 -14 3 -21 13 -22 34 -1 17 0 24 3 17 9 -21 51 -33 76 -22 22 8
22 9 -4 9 -31 1 -44 27 -33 68 3 14 2 29 -2 32 -41 30 -97 138 -86 167 7 18
35 34 62 34 15 0 21 6 21 23 0 32 18 49 41 36 24 -12 63 -2 85 22 14 15 16 26
8 46 -8 23 -15 27 -56 28 -26 1 -53 7 -61 13 -10 8 -12 2 -9 -30 3 -23 -1 -44
-8 -51 -10 -10 -11 -5 -7 20 5 25 1 39 -17 60 -22 25 -31 28 -84 27 -46 -1
-71 -8 -106 -28 -48 -28 -57 -28 -30 -1 9 9 13 19 10 23 -4 3 -10 1 -14 -5
-19 -30 -103 -63 -161 -63 -59 0 -126 24 -115 41 3 5 46 9 95 7 83 -2 93 0
139 28 43 25 50 33 50 62 0 37 -1 37 36 17 25 -13 31 -12 66 7 38 22 38 22 38
85 0 53 -3 63 -17 63 -16 1 -16 2 1 15 11 8 22 11 25 6 3 -4 16 -12 29 -15 21
-7 23 -12 20 -74 -3 -66 -4 -67 -36 -78 -45 -14 -29 -24 29 -17 33 4 49 2 49
-6 0 -6 -16 -11 -37 -11 -21 -1 -51 -7 -68 -15 l-30 -13 33 -1 c18 -1 46 -8
61 -16 31 -15 43 -11 34 11 -6 17 9 18 25 2 9 -9 12 -8 12 6 0 13 5 17 19 13
13 -3 21 1 24 14 6 21 51 27 62 9 4 -6 11 -8 16 -5 14 9 23 -25 10 -38 -17
-17 -13 -33 11 -34 12 -1 31 -12 42 -23 l21 -21 -24 -20 c-13 -10 -32 -19 -42
-19 -22 0 -24 -17 -5 -42 18 -24 53 -23 106 5 29 14 45 28 44 40 -1 9 3 17 10
17 6 0 5 4 -3 9 -12 8 -12 13 -3 24 7 8 10 22 6 30 -7 18 -99 67 -125 67 -12
0 -18 10 -21 35 -2 19 -3 35 -2 35 2 0 24 -11 50 -25 26 -14 53 -25 60 -25 27
0 105 -41 143 -75 33 -30 46 -36 68 -30 l26 6 -33 20 c-52 32 -18 43 40 14 48
-24 70 -20 70 12 0 18 7 16 32 -7 12 -11 28 -20 35 -20 22 0 15 -17 -22 -49
-21 -18 -47 -31 -63 -31 -26 -1 -26 -1 -8 -15 16 -12 17 -17 6 -30 -10 -12 -9
-16 4 -21 9 -3 23 -1 31 6 20 17 28 8 31 -38 2 -32 -1 -41 -20 -52 -38 -20
-66 -5 -66 37 0 19 -3 33 -7 31 -5 -1 -38 -18 -76 -36 -93 -46 -173 -72 -219
-72 -36 0 -39 -2 -32 -22 14 -46 43 -76 67 -71 25 5 185 49 233 64 17 5 57 9
90 9 54 1 63 4 103 39 54 46 51 61 -18 95 -56 29 -68 43 -52 59 8 8 22 8 53 0
32 -9 45 -9 51 0 6 8 7 6 3 -5 -11 -36 42 -33 98 5 29 20 29 20 22 101 l-6 81
-60 58 c-85 80 -132 75 -170 -21 l-12 -32 -57 32 c-31 17 -104 60 -162 95 -59
35 -109 63 -113 63 -3 0 -29 15 -58 34 -29 18 -93 54 -141 80 -79 41 -94 46
-155 46 -50 0 -80 -6 -117 -24z m155 -23 c66 -37 65 -67 -2 -102 l-45 -25 -51
32 c-48 31 -70 66 -51 78 5 3 6 10 3 16 -4 7 -2 8 4 4 6 -4 24 0 39 8 38 21
46 20 103 -11z m123 -115 c-2 -5 -3 -27 -3 -50 0 -24 -4 -38 -8 -32 -4 6 -14
13 -23 16 -11 4 -14 16 -11 43 4 30 8 36 26 33 11 -2 20 -6 19 -10z m71 -16
c-1 -6 -2 -27 -2 -45 -2 -26 -6 -33 -22 -33 -16 0 -20 6 -18 31 1 17 -1 36 -5
42 -4 6 -1 14 5 16 21 9 43 3 42 -11z m-391 -4 c27 -13 33 -38 10 -46 -8 -2
-13 5 -13 16 0 15 -5 19 -20 15 -14 -4 -20 0 -20 11 0 19 8 20 43 4z m-53 -28
c0 -5 9 -10 20 -10 11 0 20 -5 20 -10 0 -15 -31 -25 -39 -13 -3 5 -14 12 -23
16 -24 9 -23 27 2 27 11 0 20 -4 20 -10z m305 -20 c-1 -14 -8 -36 -17 -49 -15
-21 -17 -21 -21 -4 -3 10 -5 33 -5 51 -1 28 2 33 21 30 16 -2 22 -10 22 -28z
m-189 9 c10 -17 -13 -36 -27 -22 -12 12 -4 33 11 33 5 0 12 -5 16 -11z m-48
-36 c-4 -22 -22 -20 -26 1 -2 10 3 16 13 16 10 0 15 -7 13 -17z m42 -17 c0
-21 -21 -31 -30 -15 -5 7 -6 17 -4 21 9 14 34 9 34 -6z m475 -27 c53 -30 63
-49 26 -49 -9 0 -22 5 -27 10 -6 6 -26 19 -44 29 -19 10 -36 23 -38 29 -7 21
27 13 83 -19z m-719 -10 c6 -5 14 -6 17 -2 8 7 87 -27 87 -37 0 -17 -70 -21
-93 -5 -13 8 -27 12 -30 8 -4 -3 -7 -1 -7 5 0 6 -9 14 -21 17 -15 5 -18 10 -9
20 11 13 34 11 56 -6z m-261 -39 c4 -6 11 -8 16 -5 5 4 9 2 9 -4 0 -5 8 -12
18 -15 37 -12 80 -60 80 -92 0 -27 -6 -34 -56 -61 l-57 -31 -75 43 c-68 40
-75 47 -71 72 1 15 14 38 27 50 13 12 24 20 24 18 0 -3 15 4 33 15 37 23 43
24 52 10z m233 -16 c40 -19 44 -27 28 -49 -12 -16 -15 -16 -54 4 -45 23 -49
30 -30 49 15 15 19 15 56 -4z m-407 -120 c21 -13 42 -24 46 -24 5 0 18 -10 29
-23 15 -16 20 -31 17 -53 -4 -25 -15 -37 -59 -62 l-55 -32 -37 23 c-20 13 -42
26 -47 29 -6 4 -11 -4 -10 -20 0 -20 -5 -27 -20 -27 -17 0 -20 7 -22 54 -1 29
-4 59 -7 67 -5 14 42 59 74 69 11 4 18 10 16 14 -11 17 40 8 75 -15z m349 -69
c0 -41 4 -43 87 -49 51 -3 63 -1 68 13 7 24 6 36 -5 37 -23 3 -24 6 -5 13 26
11 35 5 35 -23 0 -55 87 -111 162 -104 41 4 48 2 48 -13 0 -9 -6 -19 -12 -21
-9 -3 -12 -41 -10 -145 3 -152 2 -158 -55 -169 -22 -4 -36 0 -59 19 -39 32
-137 97 -146 97 -5 0 -8 -9 -8 -20 0 -24 -26 -26 -58 -4 -18 12 -22 25 -22 67
0 29 -4 69 -9 89 -7 30 -5 40 9 53 10 9 24 15 31 13 8 -2 13 3 11 11 -2 10 7
12 33 9 34 -4 35 -3 35 30 0 31 -1 32 -16 17 -9 -9 -24 -13 -35 -10 -14 5 -19
1 -19 -12 0 -23 -54 -57 -80 -50 -12 3 -25 -5 -40 -25 -17 -24 -24 -27 -31
-17 -5 8 -9 9 -9 3 0 -6 8 -18 17 -25 9 -8 14 -9 11 -4 -3 6 5 18 18 28 24 18
24 18 24 -6 0 -32 -26 -54 -48 -41 -30 19 -38 42 -23 66 8 14 9 18 1 12 -10
-10 -50 -8 -50 3 0 2 11 16 25 31 14 15 24 31 22 36 -2 6 -29 9 -60 7 -46 -2
-57 1 -57 13 0 13 13 16 70 16 67 0 70 1 70 24 0 16 10 31 33 44 44 28 47 27
47 -13z m-536 -107 c-3 -72 -3 -75 -14 -58 -9 13 -10 13 -10 0 -1 -27 -18 11
-20 45 -4 51 -1 57 23 53 19 -3 22 -9 21 -40z m383 -40 c-12 -20 -38 -21 -82
-3 -33 13 28 -40 64 -56 17 -8 31 -20 31 -26 0 -7 10 -13 23 -13 24 -1 57 -22
57 -36 0 -6 10 -10 22 -11 31 -3 56 -29 40 -45 -9 -9 -12 -9 -12 0 0 7 -7 12
-15 12 -8 0 -15 5 -15 11 0 5 -4 7 -10 4 -5 -3 -10 -1 -10 4 0 6 -7 11 -15 11
-8 0 -15 3 -15 8 0 4 -18 16 -40 26 -22 11 -40 23 -40 27 0 5 -7 6 -15 3 -9
-4 -15 0 -15 7 0 11 -2 11 -10 -1 -7 -12 -11 -10 -19 10 -5 14 -10 20 -10 15
-1 -6 -14 -16 -30 -23 -25 -11 -34 -11 -60 2 -16 9 -47 16 -68 16 l-38 -1 35
-28 c19 -16 39 -29 44 -28 5 1 11 -4 13 -10 9 -24 -22 -13 -100 33 -94 56 -90
70 15 67 60 -2 81 2 125 23 35 18 61 24 80 20 15 -3 34 -2 42 3 8 5 20 7 27 4
10 -4 11 -9 1 -25z m1203 -12 c0 -2 -7 -7 -16 -10 -8 -3 -12 -2 -9 4 6 10 25
14 25 6z m521 -36 c-2 -8 -3 -27 -2 -42 1 -22 -3 -28 -18 -28 -23 0 -28 11
-23 57 4 28 8 34 26 31 13 -2 19 -9 17 -18z m-2042 -92 c166 -94 159 -87 116
-112 l-36 -22 103 -61 c57 -33 129 -75 161 -93 31 -17 57 -34 57 -36 0 -2 -44
-29 -97 -60 -54 -31 -116 -68 -138 -81 -58 -36 -153 -90 -210 -122 -112 -63
-112 -63 -113 -98 -1 -18 2 -33 6 -33 5 0 28 13 53 28 47 30 193 115 376 219
62 35 116 71 121 79 8 14 16 11 60 -16 54 -33 65 -46 33 -37 -12 3 -22 -1 -25
-9 -9 -22 -46 -17 -46 6 0 11 5 20 12 20 6 0 9 3 6 6 -4 3 -19 -1 -35 -10 -25
-12 -29 -19 -25 -49 l4 -34 -158 -92 c-92 -54 -165 -90 -175 -88 -10 3 -20 -1
-23 -9 -3 -8 -12 -14 -21 -14 -21 0 -31 30 -14 41 20 13 4 11 -26 -3 -21 -9
-25 -18 -25 -54 0 -33 5 -46 19 -54 16 -8 20 -6 23 9 3 16 11 14 78 -24 87
-48 369 -211 690 -398 47 -27 129 -74 183 -105 92 -54 97 -58 97 -90 0 -20 4
-31 10 -27 6 4 42 -12 81 -34 68 -39 71 -40 100 -26 25 13 29 21 29 55 0 28
-5 42 -19 49 -14 8 -20 7 -25 -4 -7 -20 -46 -19 -46 1 0 8 6 22 14 29 13 13
183 116 277 167 l36 20 72 -41 c62 -36 74 -40 93 -30 31 16 38 28 38 66 0 36
-33 65 -44 38 -7 -20 -46 -19 -46 1 0 18 26 47 38 42 29 -12 192 -112 192
-117 0 -3 -57 -40 -127 -81 -307 -179 -421 -245 -461 -268 -29 -16 -46 -21
-55 -14 -6 5 -102 61 -212 124 -110 63 -346 200 -525 303 -179 103 -516 298
-750 433 -482 278 -593 343 -588 347 12 10 270 163 448 266 264 152 293 168
304 169 5 0 65 -32 135 -72z m2114 27 c-1 -22 -2 -43 -2 -47 -1 -3 -9 -5 -18
-4 -14 2 -19 14 -21 50 -3 45 -2 47 20 44 20 -3 23 -8 21 -43z m-1673 9 c0 -8
-5 -12 -10 -9 -6 4 -8 11 -5 16 9 14 15 11 15 -7z m-75 -44 c3 -5 -1 -10 -9
-10 -8 0 -18 5 -21 10 -3 6 1 10 9 10 8 0 18 -4 21 -10z m-127 -20 c28 -17 31
-23 22 -40 -6 -11 -13 -20 -15 -20 -3 0 -74 39 -84 47 -7 5 21 33 33 33 6 0
26 -9 44 -20z m1807 -10 c3 -5 -1 -10 -10 -10 -9 0 -13 5 -10 10 3 6 8 10 10
10 2 0 7 -4 10 -10z m-1613 -54 c23 -10 35 -22 32 -30 -3 -7 2 -16 11 -19 8
-4 20 -18 25 -32 7 -18 31 -36 82 -60 40 -19 77 -35 83 -35 5 0 15 -11 21 -23
10 -22 7 -26 -30 -46 l-42 -21 -144 82 c-169 97 -196 115 -187 125 4 3 -5 15
-20 25 -16 10 -26 18 -23 19 20 6 67 4 76 -2 13 -10 84 0 84 12 0 5 -4 9 -10
9 -5 0 -10 5 -10 11 0 5 3 8 8 6 4 -2 24 -11 44 -21z m1034 -92 c162 -92 177
-103 166 -120 -4 -7 -51 -36 -104 -66 -54 -30 -94 -59 -90 -63 4 -5 2 -5 -4
-2 -6 3 -27 -5 -47 -19 -56 -37 -81 -44 -108 -30 -13 7 -82 47 -154 87 -71 41
-141 79 -154 85 -24 10 -24 11 20 37 153 95 296 176 310 177 9 0 83 -38 165
-86z m904 76 c0 -5 -7 -10 -15 -10 -8 0 -15 5 -15 10 0 6 7 10 15 10 8 0 15
-4 15 -10z m-270 -10 c0 -5 -5 -10 -11 -10 -5 0 -7 5 -4 10 3 6 8 10 11 10 2
0 4 -4 4 -10z m150 -29 c0 -4 -16 -15 -36 -26 -30 -16 -37 -17 -45 -4 -13 21
-12 24 24 41 30 15 57 9 57 -11z m212 -28 c6 -43 0 -66 -13 -57 -5 3 -9 -1
-10 -8 0 -7 -4 -4 -9 7 -7 18 -5 47 6 83 7 25 22 11 26 -25z m-1494 16 c-2 -6
-8 -10 -13 -10 -5 0 -11 4 -13 10 -2 6 4 11 13 11 9 0 15 -5 13 -11z m1402 0
c0 -16 -13 -39 -22 -39 -5 0 -6 5 -3 10 3 6 1 10 -4 10 -6 0 -11 6 -11 13 0 7
9 13 20 13 11 0 20 -3 20 -7z m-1427 -21 c3 -10 9 -10 27 0 16 10 26 10 33 3
7 -7 2 -13 -17 -21 -15 -5 -32 -10 -37 -10 -5 0 -9 -4 -9 -10 0 -5 -7 -10 -15
-10 -8 0 -15 -4 -15 -10 0 -5 -7 -10 -15 -10 -8 0 -15 5 -15 10 0 6 7 10 15
10 8 0 15 5 15 10 0 6 7 10 15 10 8 0 15 5 15 10 0 14 -37 13 -42 -2 -3 -7
-10 -8 -17 -4 -9 6 -7 12 11 21 30 17 45 18 51 3z m-76 -44 c-9 -9 -28 6 -21
18 4 6 10 6 17 -1 6 -6 8 -13 4 -17z m109 -39 c-29 -19 -41 -23 -54 -15 -15 9
-15 10 3 8 11 -1 31 5 45 15 13 9 29 17 34 17 5 0 -8 -11 -28 -25z m665 8 c13
-15 12 -15 -11 -3 -34 17 -36 20 -18 20 9 0 22 -7 29 -17z m756 -24 c41 -23
145 -83 233 -134 30 -17 92 -53 138 -79 45 -26 82 -53 82 -59 -1 -7 -87 -62
-193 -124 -106 -61 -268 -156 -362 -210 -93 -55 -177 -102 -187 -105 -10 -5
-84 32 -210 104 -106 62 -217 125 -247 142 -30 17 -56 36 -58 43 -2 6 17 24
44 39 26 15 89 51 138 79 50 29 196 114 325 189 129 75 240 136 247 136 7 0
29 -10 50 -21z m-1457 -49 c0 -5 -2 -10 -4 -10 -3 0 -8 5 -11 10 -3 6 -1 10 4
10 6 0 11 -4 11 -10z m-244 -186 c35 -19 74 -44 86 -54 20 -17 21 -20 8 -34
-31 -31 -396 -236 -420 -236 -26 0 -173 80 -185 101 -4 6 -1 17 6 24 31 29
396 235 417 235 13 0 53 -16 88 -36z m270 -189 c19 -14 19 -14 -2 -15 -11 0
-29 7 -40 15 -19 14 -19 14 2 15 11 0 29 -7 40 -15z m-15 -37 c55 -31 73 -48
48 -48 -15 0 -129 64 -129 73 0 14 22 7 81 -25z m-86 0 c26 -12 34 -28 13 -28
-15 1 -48 24 -48 34 0 9 5 8 35 -6z m238 -44 c10 -6 14 -14 10 -17 -13 -8
-115 52 -108 64 6 9 38 -6 98 -47z m-200 -25 c48 -28 87 -55 87 -60 0 -5 -2
-9 -5 -9 -10 0 -185 102 -191 111 -13 21 27 6 109 -42z m-102 11 c22 -12 37
-25 34 -30 -6 -10 -85 29 -85 43 0 11 7 9 51 -13z m177 -7 c61 -36 32 -43 -31
-8 -26 15 -47 29 -47 31 0 12 37 1 78 -23z m-228 -13 c14 -11 19 -20 12 -20
-19 0 -52 19 -52 30 0 15 12 12 40 -10z m331 0 c13 -10 19 -19 12 -20 -18 0
-63 22 -63 32 0 14 27 9 51 -12z m94 -10 c3 -5 -1 -10 -9 -10 -8 0 -18 5 -21
10 -3 6 1 10 9 10 8 0 18 -4 21 -10z m-280 -22 c25 -11 34 -28 14 -28 -17 0
-49 20 -49 30 0 13 4 12 35 -2z m-29 -33 c32 -19 62 -35 68 -35 6 0 6 -4 -1
-11 -8 -8 -30 0 -82 30 -39 23 -71 44 -71 46 0 13 34 1 86 -30z m210 20 c18
-15 18 -15 -5 -13 -14 2 -26 9 -29 16 -5 17 10 15 34 -3z m114 -17 c37 -22 49
-33 38 -36 -17 -3 -103 41 -114 59 -11 18 22 8 76 -23z m45 22 c3 -5 -3 -10
-14 -10 -11 0 -23 5 -26 10 -3 6 3 10 14 10 11 0 23 -4 26 -10z m515 -10 c14
-11 28 -20 32 -20 3 0 59 -30 124 -67 106 -61 124 -68 183 -71 98 -6 94 -18
-8 -25 -50 -4 -99 -12 -110 -19 -15 -9 -24 -8 -45 6 -15 9 -32 14 -38 10 -7
-4 -8 -3 -4 4 5 8 -1 12 -14 12 -14 0 -19 4 -14 12 5 8 2 9 -9 5 -10 -4 -16
-2 -14 6 1 8 -9 11 -28 10 -18 -1 -25 1 -17 5 15 10 -16 47 -47 57 -14 4 -20
17 -23 50 -2 25 -1 45 2 45 3 0 16 -9 30 -20z m-1009 -47 c54 -32 99 -61 99
-65 0 -11 -76 -48 -97 -48 -22 1 -195 101 -200 115 -4 12 64 54 86 55 7 0 58
-26 112 -57z m422 -43 c31 -17 54 -36 51 -41 -3 -5 -8 -8 -12 -6 -92 49 -190
112 -186 119 3 5 24 -2 47 -15 23 -14 68 -39 100 -57z m138 63 c29 -17 38 -33
20 -33 -11 0 -81 40 -81 46 0 10 35 2 61 -13z m-317 -8 c11 -8 16 -18 13 -22
-8 -8 -57 17 -57 29 0 13 23 9 44 -7z m162 0 c18 -15 18 -15 -5 -13 -14 2 -26
9 -29 16 -5 17 10 15 34 -3z m110 -61 c64 -36 81 -50 71 -61 -7 -6 -156 79
-157 90 0 14 23 7 86 -29z m33 27 c8 -5 9 -11 3 -15 -13 -8 -42 3 -42 15 0 11
21 11 39 0z m-198 -28 c45 -26 61 -43 40 -43 -12 0 -100 50 -106 61 -11 17 17
9 66 -18z m312 13 c10 -8 14 -17 8 -20 -11 -7 -61 13 -61 26 0 13 33 9 53 -6z
m-358 -33 c60 -35 79 -53 56 -53 -11 0 -151 80 -151 86 0 13 39 -1 95 -33z
m315 7 c21 -16 22 -20 7 -20 -23 0 -57 18 -57 30 0 16 23 11 50 -10z m-386
-72 c31 -18 55 -37 53 -43 -2 -5 -22 -20 -45 -33 l-42 -24 -65 37 c-36 20 -65
38 -65 40 0 5 91 54 102 55 3 0 31 -14 62 -32z m241 15 c31 -15 45 -38 20 -32
-23 4 -75 33 -75 41 0 12 16 10 55 -9z m59 11 c9 -3 16 -10 16 -15 0 -14 -26
-10 -40 6 -13 16 -3 20 24 9z m581 -45 c30 -17 55 -34 55 -38 0 -4 -11 -18
-24 -30 -23 -22 -24 -22 -55 -3 -21 13 -28 22 -21 30 6 7 3 6 -6 -2 -13 -12
-20 -11 -45 1 -33 17 -42 59 -10 48 10 -3 24 1 31 10 16 19 11 20 75 -16z
m-696 -89 c25 -14 46 -30 48 -36 4 -11 -66 -54 -87 -54 -15 0 -120 62 -120 71
0 14 85 57 100 51 8 -3 35 -17 59 -32z"/>
<path d="M4607 3198 c7 -8 10 -17 7 -21 -3 -3 4 -3 15 0 25 6 25 6 -9 23 -22
12 -24 11 -13 -2z"/>
<path d="M4621 2821 c-1 -8 -8 -11 -20 -8 -29 7 -45 -7 -38 -36 6 -20 12 -23
32 -19 15 2 25 0 25 -7 0 -6 -4 -11 -10 -11 -5 0 -10 -3 -10 -8 0 -8 68 -31
74 -24 6 5 -15 55 -27 63 -4 3 -12 19 -17 35 -4 16 -9 23 -9 15z"/>
<path d="M4526 2761 c-4 -5 3 -7 14 -4 23 6 26 13 6 13 -8 0 -17 -4 -20 -9z"/>
<path d="M3756 2510 c-65 -39 -120 -70 -122 -70 -1 0 -40 -22 -86 -50 -46 -27
-76 -50 -67 -50 8 0 44 17 80 38 35 21 124 73 197 116 72 43 132 80 132 82 0
10 -24 -1 -134 -66z"/>
<path d="M3657 2519 c7 -7 15 -10 18 -7 3 3 -2 9 -12 12 -14 6 -15 5 -6 -5z"/>
<path d="M3570 2516 c0 -2 7 -7 16 -10 8 -3 12 -2 9 4 -6 10 -25 14 -25 6z"/>
<path d="M3561 2496 c2 -2 15 -9 29 -15 24 -11 24 -11 6 3 -16 13 -49 24 -35
12z"/>
<path d="M3529 2461 c13 -12 28 -21 34 -21 12 0 11 0 -28 24 l-30 17 24 -20z"/>
<path d="M3471 2467 c2 -2 18 -11 34 -21 l30 -17 -24 20 c-13 12 -28 21 -34
21 -6 0 -8 -1 -6 -3z"/>
<path d="M3430 2436 c0 -2 7 -7 16 -10 8 -3 12 -2 9 4 -6 10 -25 14 -25 6z"/>
<path d="M3428 2410 c42 -26 56 -26 17 0 -16 11 -34 20 -40 20 -5 0 5 -9 23
-20z"/>
<path d="M5263 2537 c-139 -74 -213 -123 -213 -139 0 -11 44 -42 133 -92 73
-42 137 -76 143 -76 12 0 255 137 271 153 7 7 9 17 5 23 -7 12 -232 145 -263
157 -9 3 -43 -9 -76 -26z m152 -59 c99 -57 99 -70 1 -126 -40 -23 -82 -42 -92
-42 -29 0 -168 83 -172 102 -2 12 20 30 75 62 43 25 86 46 96 46 10 0 51 -19
92 -42z"/>
<path d="M6305 2363 c-44 -25 -154 -90 -245 -143 -91 -53 -215 -126 -277 -161
-62 -35 -112 -69 -113 -75 0 -10 65 -48 85 -49 6 0 16 -8 23 -17 7 -10 20 -18
29 -18 9 0 21 -7 27 -15 13 -17 62 -25 59 -10 -1 6 7 11 17 12 11 1 40 16 64
32 25 17 49 31 54 31 5 0 21 9 36 21 14 11 26 17 26 13 0 -4 8 0 18 8 9 8 39
28 65 43 26 15 46 30 43 33 -3 3 -23 -6 -43 -19 -21 -14 -49 -30 -62 -38 -57
-31 -89 -50 -139 -81 -49 -30 -55 -31 -70 -17 -18 19 -20 16 38 49 25 14 89
50 142 81 53 32 106 57 117 57 12 0 21 6 21 13 0 12 278 177 298 177 18 0 24
-20 12 -35 -9 -11 -9 -15 -1 -15 6 0 11 5 11 11 0 5 5 7 12 3 7 -5 8 -3 3 6
-6 10 -4 12 9 7 14 -6 17 -2 14 16 -2 16 -11 23 -30 25 -16 2 -28 9 -28 18 0
8 -10 14 -25 14 -16 0 -25 6 -25 15 0 8 -6 15 -12 15 -7 0 -24 9 -38 20 -14
11 -27 20 -30 20 -3 0 -41 -21 -85 -47z m119 -29 c26 -14 45 -31 43 -37 -3
-11 -51 -42 -124 -79 l-41 -21 -49 29 c-26 15 -56 27 -65 26 -10 -2 -18 2 -18
7 0 11 6 13 40 15 31 2 119 58 113 72 -9 24 50 17 101 -12z m-349 -165 c4 -6
5 -12 2 -15 -7 -7 -37 7 -37 17 0 13 27 11 35 -2z m-80 -29 c-3 -5 -15 -10
-26 -10 -11 0 -17 5 -14 10 3 6 15 10 26 10 11 0 17 -4 14 -10z m153 -18 c3
-9 -2 -13 -14 -10 -9 1 -19 9 -22 16 -3 9 2 13 14 10 9 -1 19 -9 22 -16z
m-288 -62 c0 -5 -12 -10 -26 -10 -14 0 -23 4 -19 10 3 6 15 10 26 10 10 0 19
-4 19 -10z m-45 -50 c3 -5 -3 -10 -14 -10 -11 0 -23 5 -26 10 -3 6 3 10 14 10
11 0 23 -4 26 -10z m61 -48 c-9 -9 -37 8 -31 18 5 8 11 7 21 -1 8 -6 12 -14
10 -17z"/>
<path d="M6611 2259 c-14 -6 -21 -15 -17 -24 3 -10 -10 -23 -42 -42 -26 -14
-94 -55 -152 -90 -58 -34 -132 -77 -164 -94 l-60 -31 52 -32 c29 -17 52 -34
52 -38 0 -4 -37 -28 -82 -53 l-82 -46 -38 17 c-54 24 -66 41 -42 60 10 9 2 6
-19 -6 -21 -12 -46 -20 -56 -17 -10 2 -26 0 -35 -5 -23 -13 -1 -41 26 -32 12
3 17 1 16 -6 -3 -13 30 -37 106 -74 45 -23 83 -25 70 -5 -3 5 4 9 15 9 12 0
21 4 21 9 0 5 8 12 19 16 10 3 29 14 41 25 25 22 45 27 34 8 -4 -7 -3 -8 5 -4
6 4 9 11 6 16 -6 9 24 24 43 21 6 -1 12 2 12 7 0 6 11 13 25 16 14 4 23 10 20
15 -2 5 2 12 11 15 9 3 12 2 8 -5 -3 -6 7 -4 22 5 49 26 84 52 79 58 -3 3 1 8
10 12 10 4 14 2 9 -6 -4 -6 7 -3 24 8 17 10 29 20 27 23 -9 8 35 32 47 25 7
-5 8 -3 3 6 -6 10 -4 12 9 7 11 -5 15 -3 10 5 -5 8 -2 9 10 5 9 -4 15 -3 12 2
-6 8 17 23 39 26 23 3 64 29 59 36 -5 8 17 14 39 10 4 0 7 6 7 15 0 8 4 12 10
9 6 -3 7 1 4 9 -8 21 -66 56 -93 56 -12 0 -21 6 -21 15 0 14 -12 20 -33 16 -5
-1 -16 7 -25 18 -13 15 -22 17 -41 10z m34 -79 c3 -5 -3 -10 -14 -10 -11 0
-23 5 -26 10 -3 6 3 10 14 10 11 0 23 -4 26 -10z m67 -48 c-19 -6 -44 6 -37
18 4 7 14 6 28 -2 14 -7 17 -13 9 -16z m-42 -32 c0 -13 -28 -25 -38 -16 -3 4
0 11 8 16 20 13 30 12 30 0z m-300 -70 c8 -5 11 -12 8 -16 -10 -9 -38 3 -38
16 0 12 10 13 30 0z m160 -10 c0 -13 -28 -25 -38 -16 -3 4 0 11 8 16 20 13 30
12 30 0z m-90 -30 c8 -5 11 -12 8 -16 -10 -9 -38 3 -38 16 0 12 10 13 30 0z
m20 -65 c0 -2 -10 -9 -22 -15 -22 -11 -22 -10 -4 4 21 17 26 19 26 11z m-140
-34 c0 -10 -30 -24 -37 -17 -3 3 -2 9 2 15 8 13 35 15 35 2z m-155 -92 c-8
-12 -35 -12 -35 0 0 11 22 20 33 14 4 -2 5 -9 2 -14z"/>
<path d="M6478 2224 c-16 -8 -28 -17 -28 -19 0 -11 19 -4 41 15 29 23 24 25
-13 4z"/>
<path d="M6385 2173 c-22 -14 -42 -30 -43 -35 -2 -4 -7 -6 -12 -3 -4 3 -13 -2
-20 -10 -7 -8 -18 -15 -26 -15 -7 0 -16 -5 -19 -11 -15 -23 138 62 174 97 14
13 -20 -1 -54 -23z"/>
<path d="M6124 1944 c-18 -14 -18 -15 4 -4 12 6 22 13 22 15 0 8 -5 6 -26 -11z"/>
<path d="M4569 2161 l-23 -18 79 -47 c44 -25 82 -46 85 -46 3 0 20 9 39 21
l34 21 -74 44 c-82 49 -106 53 -140 25z"/>
<path d="M4415 2054 c31 -23 142 -84 154 -84 26 0 6 19 -63 58 -40 23 -82 42
-92 42 -18 -1 -18 -1 1 -16z"/>
<path d="M4326 2022 c-5 -9 145 -102 165 -102 25 0 1 24 -60 60 -85 49 -97 54
-105 42z"/>
<path d="M4276 1991 c-7 -11 4 -20 86 -65 37 -21 73 -34 79 -31 6 5 0 14 -18
24 -95 58 -142 80 -147 72z"/>
<path d="M5834 1749 c-3 -5 -2 -9 3 -9 4 0 1 -4 -7 -10 -8 -5 -11 -12 -7 -17
5 -4 11 -2 16 5 8 13 30 3 124 -52 26 -15 47 -24 47 -18 0 5 -13 15 -29 22
-16 6 -37 20 -47 31 -9 10 -24 19 -33 19 -14 0 -14 2 -1 10 11 7 5 9 -20 5
-24 -4 -29 -3 -16 3 19 8 19 9 -2 14 -12 4 -25 2 -28 -3z"/>
<path d="M5900 1676 c0 -3 9 -10 20 -16 11 -6 20 -8 20 -6 0 3 -9 10 -20 16
-11 6 -20 8 -20 6z"/>
<path d="M5957 1639 c7 -7 15 -10 18 -7 3 3 -2 9 -12 12 -14 6 -15 5 -6 -5z"/>
<path d="M5816 1603 c-6 -14 -5 -15 5 -6 7 7 10 15 7 18 -3 3 -9 -2 -12 -12z"/>
<path d="M5406 3510 c12 -5 25 -13 28 -19 4 -6 13 -8 20 -5 16 6 79 -30 69
-39 -3 -4 -12 -2 -19 4 -10 8 -17 7 -27 -3 -12 -12 -10 -14 19 -14 19 0 34 4
34 9 0 4 10 6 23 2 12 -3 0 8 -28 24 -27 17 -58 29 -68 27 -11 -3 -17 0 -14 7
3 8 -7 13 -27 14 -26 1 -28 0 -10 -7z"/>
<path d="M5370 3500 c0 -18 75 -50 91 -38 12 8 12 9 -1 5 -8 -2 -32 7 -52 20
-21 13 -38 19 -38 13z"/>
<path d="M5779 3445 c-3 -2 -19 -5 -37 -7 -34 -2 -41 -18 -17 -38 20 -17 60 0
68 29 5 19 -3 28 -14 16z"/>
<path d="M5660 3430 c0 -5 5 -10 10 -10 6 0 10 5 10 10 0 6 -4 10 -10 10 -5 0
-10 -4 -10 -10z"/>
<path d="M5530 3400 c14 -11 32 -20 40 -20 17 0 -13 23 -45 33 -16 6 -15 3 5
-13z"/>
<path d="M5590 3406 c0 -21 15 -27 41 -18 l23 9 -21 12 c-29 15 -43 14 -43 -3z"/>
<path d="M5847 3404 c-3 -3 -2 -16 3 -28 4 -12 11 -57 15 -101 8 -78 8 -79 58
-127 27 -27 51 -47 54 -45 2 3 -4 24 -12 48 -9 24 -24 68 -33 96 -14 49 -14
54 1 71 22 24 21 55 -1 75 -18 16 -72 23 -85 11z"/>
<path d="M5781 3386 c-7 -8 -27 -22 -46 -31 -42 -19 -44 -32 -7 -41 15 -4 46
-23 70 -42 l42 -34 0 33 c0 92 -30 150 -59 115z"/>
<path d="M5892 3095 c2 -28 8 -40 18 -40 23 0 23 29 0 56 l-20 24 2 -40z"/>
<path d="M4990 2852 c0 -5 8 -17 19 -26 17 -16 19 -16 25 0 8 20 8 19 -21 28
-13 4 -23 3 -23 -2z"/>
<path d="M5732 2788 c-16 -16 -15 -33 2 -47 11 -9 13 -5 13 24 -1 19 -2 35 -2
35 -1 0 -6 -5 -13 -12z"/>
<path d="M5160 2700 c0 -5 5 -10 10 -10 6 0 10 5 10 10 0 6 -4 10 -10 10 -5 0
-10 -4 -10 -10z"/>
<path d="M5090 2691 c0 -5 5 -13 10 -16 6 -3 10 -2 10 4 0 5 -4 13 -10 16 -5
3 -10 2 -10 -4z"/>
<path d="M5670 2526 c0 -2 7 -7 16 -10 8 -3 12 -2 9 4 -6 10 -25 14 -25 6z"/>
<path d="M5068 2236 c4 -41 5 -44 23 -33 10 6 19 17 19 24 0 7 5 13 11 13 5 0
7 -5 3 -12 -4 -7 -3 -8 4 -4 6 4 8 14 5 23 -6 14 -9 13 -24 -5 -20 -26 -29
-28 -29 -7 0 8 5 15 11 15 8 0 8 5 -1 15 -20 24 -25 18 -22 -29z"/>
<path d="M5135 2180 c-3 -5 -2 -10 4 -10 5 0 13 5 16 10 3 6 2 10 -4 10 -5 0
-13 -4 -16 -10z"/>
<path d="M5486 1965 c-3 -9 -6 -24 -5 -33 0 -9 5 -4 10 12 9 32 6 48 -5 21z"/>
<path d="M5544 1880 c0 -13 4 -16 10 -10 7 7 7 13 0 20 -6 6 -10 3 -10 -10z"/>
<path d="M5450 1866 c0 -9 5 -16 10 -16 6 0 10 4 10 9 0 6 -4 13 -10 16 -5 3
-10 -1 -10 -9z"/>
<path d="M5566 1865 c-6 -17 21 -55 40 -55 8 0 14 -4 14 -10 0 -5 5 -10 11
-10 17 0 -1 21 -27 30 -30 12 -31 28 -1 40 12 5 18 9 12 10 -5 1 -18 3 -27 5
-9 2 -19 -3 -22 -10z"/>
<path d="M5627 1846 c-4 -10 -1 -13 8 -9 8 3 12 9 9 14 -7 12 -11 11 -17 -5z"/>
<path d="M5651 1794 c0 -11 3 -14 6 -6 3 7 2 16 -1 19 -3 4 -6 -2 -5 -13z"/>
<path d="M5692 1740 c0 -14 2 -19 5 -12 2 6 2 18 0 25 -3 6 -5 1 -5 -13z"/>
<path d="M5635 1740 c3 -5 8 -10 11 -10 2 0 4 5 4 10 0 6 -5 10 -11 10 -5 0
-7 -4 -4 -10z"/>
<path d="M9394 5762 c-6 -4 -17 -18 -24 -31 -31 -59 51 -110 103 -64 48 44
-25 132 -79 95z"/>
<path d="M748 5705 c-5 -25 -3 -26 31 -23 28 2 36 7 36 23 0 15 -8 21 -31 23
-27 3 -32 -1 -36 -23z"/>
<path d="M1259 5723 c0 -4 -2 -16 -4 -26 -3 -15 2 -18 33 -15 29 2 37 7 37 23
0 15 -8 21 -32 23 -18 2 -33 0 -34 -5z"/>
<path d="M1521 5670 c-14 -42 -15 -40 15 -40 22 0 24 3 18 23 -14 47 -21 51
-33 17z"/>
<path d="M1910 5705 c0 -21 5 -25 29 -25 35 0 56 21 39 38 -7 7 -25 12 -40 12
-23 0 -28 -4 -28 -25z"/>
<path d="M1040 5283 c-26 -9 -40 -35 -40 -73 0 -70 55 -104 96 -59 26 29 22
98 -7 122 -22 18 -25 19 -49 10z"/>
<path d="M1640 5260 c0 -16 7 -20 35 -20 28 0 35 4 35 20 0 16 -7 20 -35 20
-28 0 -35 -4 -35 -20z"/>
<path d="M2670 5260 c0 -16 7 -20 35 -20 28 0 35 4 35 20 0 16 -7 20 -35 20
-28 0 -35 -4 -35 -20z"/>
<path d="M3278 3213 c6 -2 18 -2 25 0 6 3 1 5 -13 5 -14 0 -19 -2 -12 -5z"/>
<path d="M2189 3652 c5 -34 6 -35 9 -8 2 16 0 32 -5 37 -5 5 -7 -7 -4 -29z"/>
<path d="M2041 3594 c0 -11 3 -14 6 -6 3 7 2 16 -1 19 -3 4 -6 -2 -5 -13z"/>
<path d="M2051 3544 c0 -11 3 -14 6 -6 3 7 2 16 -1 19 -3 4 -6 -2 -5 -13z"/>
<path d="M8466 3249 c-8 -12 -12 -28 -9 -37 5 -12 8 -10 15 8 5 13 14 30 20
37 7 9 7 13 0 13 -6 0 -18 -10 -26 -21z"/>
<path d="M8797 3072 c-21 -23 -23 -72 -3 -72 19 0 58 50 54 69 -5 23 -32 25
-51 3z"/>
<path d="M8331 2005 c-132 -30 -240 -110 -255 -190 -20 -107 112 -218 294
-246 179 -27 390 32 460 131 34 48 38 118 10 167 -64 115 -314 182 -509 138z
m216 -17 c7 -5 21 -7 32 -3 11 3 39 -3 65 -15 25 -11 52 -20 61 -20 9 0 19 -9
22 -19 3 -11 17 -21 34 -25 19 -4 29 -12 29 -24 0 -9 9 -26 21 -35 17 -15 19
-21 7 -34 -10 -13 -10 -17 0 -20 17 -6 15 -32 -3 -39 -8 -4 -15 -17 -15 -31 0
-16 -7 -27 -20 -30 -10 -3 -26 -16 -35 -29 -8 -13 -25 -24 -36 -24 -11 0 -33
-10 -49 -21 -16 -13 -35 -19 -45 -15 -9 3 -26 1 -37 -5 -27 -14 -175 -21 -183
-9 -3 6 -26 10 -49 10 -27 0 -48 6 -56 15 -7 8 -26 15 -42 15 -20 0 -31 6 -35
18 -2 10 -19 22 -36 28 -22 6 -31 14 -29 26 1 9 -7 22 -18 28 -22 12 -28 40
-8 40 9 0 9 3 0 12 -17 17 -15 45 4 52 8 3 13 10 10 15 -10 15 5 41 23 41 10
0 23 11 29 25 8 17 20 25 37 25 14 0 34 9 46 21 14 14 29 19 46 16 14 -2 35 1
48 7 28 15 166 18 182 4z"/>
<path d="M9277 1593 c-4 -3 -7 -24 -7 -45 0 -36 2 -38 20 -28 14 8 20 21 20
45 0 33 -16 46 -33 28z"/>
<path d="M9220 1495 c0 -9 6 -12 15 -9 8 4 12 10 9 15 -8 14 -24 10 -24 -6z"/>
<path d="M9170 1464 c0 -11 -6 -15 -20 -11 -13 3 -20 0 -20 -9 0 -18 4 -18 41
1 16 9 27 20 24 25 -10 16 -25 12 -25 -6z"/>
<path d="M9080 1415 c0 -9 6 -12 15 -9 8 4 12 10 9 15 -8 14 -24 10 -24 -6z"/>
<path d="M9037 1389 c-4 -16 -11 -20 -26 -16 -16 4 -21 0 -21 -14 0 -18 2 -18
35 3 36 24 42 33 26 42 -5 3 -11 -4 -14 -15z"/>
<path d="M8940 1336 c0 -9 7 -12 21 -9 16 4 17 8 7 14 -19 13 -28 11 -28 -5z"/>
<path d="M6970 1326 c0 -7 299 -176 312 -176 22 0 -25 31 -144 95 -26 14 -69
38 -95 55 -41 27 -73 38 -73 26z"/>
<path d="M8900 1304 c0 -8 5 -12 10 -9 6 3 10 10 10 16 0 5 -4 9 -10 9 -5 0
-10 -7 -10 -16z"/>
<path d="M8850 1278 c0 -17 2 -18 15 -8 8 7 15 14 15 15 0 2 -7 5 -15 9 -10 4
-15 -1 -15 -16z"/>
<path d="M6682 1267 c-17 -20 -12 -40 6 -28 8 5 12 16 10 26 -3 17 -4 17 -16
2z"/>
<path d="M7016 1212 c20 -19 106 -64 99 -53 -9 16 -81 61 -97 61 -7 0 -8 -3
-2 -8z"/>
<path d="M7320 1126 c0 -2 33 -23 73 -46 39 -24 114 -67 165 -98 51 -30 96
-52 99 -48 8 8 15 2 -97 68 -183 107 -240 136 -240 124z"/>
<path d="M7235 1090 c9 -14 95 -63 101 -57 5 4 -90 67 -102 67 -3 0 -2 -4 1
-10z"/>
<path d="M7450 970 c0 -8 82 -60 95 -60 3 0 4 4 0 9 -8 14 -95 61 -95 51z"/>
<path d="M7730 886 c0 -2 7 -7 16 -10 8 -3 12 -2 9 4 -6 10 -25 14 -25 6z"/>
<path d="M2460 1647 c0 -10 8 -17 18 -17 9 0 13 4 7 8 -5 4 -13 11 -17 16 -5
5 -8 2 -8 -7z"/>
<path d="M2418 1640 c12 -5 22 -13 22 -19 0 -5 10 -11 22 -14 19 -5 18 -3 -7
18 -17 13 -37 24 -45 24 -8 0 -5 -4 8 -9z"/>
<path d="M2505 1620 c3 -5 8 -10 11 -10 2 0 4 5 4 10 0 6 -5 10 -11 10 -5 0
-7 -4 -4 -10z"/>
<path d="M2360 1540 c8 -5 20 -10 25 -10 6 0 3 5 -5 10 -8 5 -19 10 -25 10 -5
0 -3 -5 5 -10z"/>
<path d="M2285 1500 c-3 -5 -1 -10 4 -10 6 0 11 5 11 10 0 6 -2 10 -4 10 -3 0
-8 -4 -11 -10z"/>
<path d="M3157 1289 c7 -7 15 -10 18 -7 3 3 -2 9 -12 12 -14 6 -15 5 -6 -5z"/>
<path d="M2222 1131 c-11 -7 -11 -9 0 -14 9 -3 15 1 15 9 0 8 -1 14 -1 14 -1
0 -7 -4 -14 -9z"/>
<path d="M2290 1086 c0 -3 14 -12 30 -21 17 -9 30 -13 30 -11 0 3 -13 12 -30
21 -16 9 -30 13 -30 11z"/>
<path d="M2430 1006 c0 -3 9 -10 20 -16 11 -6 20 -8 20 -6 0 3 -9 10 -20 16
-11 6 -20 8 -20 6z"/>
<path d="M3209 683 c-13 -16 -12 -17 4 -4 9 7 17 15 17 17 0 8 -8 3 -21 -13z"/>
<path d="M3000 670 c8 -5 20 -10 25 -10 6 0 3 5 -5 10 -8 5 -19 10 -25 10 -5
0 -3 -5 5 -10z"/>
<path d="M4210 1068 c-21 -23 -27 -63 -10 -73 6 -3 10 0 10 7 0 7 11 30 25 51
20 28 22 37 11 37 -8 0 -24 -10 -36 -22z"/>
<path d="M4683 834 c-7 -3 -22 -21 -34 -40 -39 -64 0 -114 48 -61 57 62 48
126 -14 101z"/>
</g>
</svg>
